<?xml version="1.0" encoding="utf-8"?>
<!-- Generator: Adobe Illustrator 28.0.0, SVG Export Plug-In . SVG Version: 6.00 Build 0)  -->
<svg version="1.1" id="Layer_1" xmlns="http://www.w3.org/2000/svg" xmlns:xlink="http://www.w3.org/1999/xlink" x="0px" y="0px"
	 viewBox="0 0 325.6 84.6" style="enable-background:new 0 0 325.6 84.6;" xml:space="preserve">
<style type="text/css">
	.st0{fill:#4D4D4F;}
	.st1{fill:url(#SVGID_1_);}
	.st2{fill:#4E4949;}
	.st3{fill:#F37D20;}
	.st4{fill:none;stroke:#4E4E4F;stroke-width:0.5;stroke-miterlimit:10;}
</style>
<g>
	<g>
		<path class="st0" d="M6.5,76.3H0V54.2h6.7c4.2,0,6.2,2.8,6.2,5.5c0,2-1,3.9-2.8,4.7v0c2.3,0.5,4.2,2.6,4.2,5.4
			C14.3,72.8,12.2,76.3,6.5,76.3L6.5,76.3z M3.5,57.2v6.3h2.5c1.7,0,3.3-1.2,3.3-3.2c0-1.8-1.1-3.1-3.5-3.1
			C5.8,57.2,3.5,57.2,3.5,57.2z M6.5,66.6h-3v6.8h2.8c2.9,0,4.3-1.4,4.3-3.5C10.6,67.9,9.1,66.6,6.5,66.6z"/>
		<path class="st0" d="M21.3,55.5c0,1.2-1,2.2-2.2,2.2s-2.2-1-2.2-2.2s1-2.2,2.2-2.2S21.3,54.2,21.3,55.5z M17.3,76.3V60.4h3.5v15.9
			H17.3z"/>
		<path class="st0" d="M37,62.3c1.4,1.5,2.2,3.6,2.2,6.1s-0.8,4.7-2.2,6.2c-1.4,1.4-3.3,2.2-5.5,2.2s-4-0.7-5.3-1.9
			c-1.5-1.5-2.4-3.7-2.4-6.3s0.8-4.7,2.3-6.2c1.3-1.4,3.2-2.2,5.4-2.2C33.7,60,35.7,60.8,37,62.3L37,62.3z M27.3,68.4
			c0,3.3,1.6,5.5,4.2,5.5s4.1-2.3,4.1-5.5s-1.5-5.5-4.2-5.5S27.3,65.1,27.3,68.4z"/>
		<path class="st0" d="M48.3,76.3h-6V54.2h6.1c8.2,0,12.2,4.5,12.2,10.9S56.3,76.3,48.3,76.3L48.3,76.3z M48.5,57.2h-2.6v16.1h2.6
			c6.2,0,8.4-3.9,8.4-8.2S54.2,57.3,48.5,57.2z"/>
		<path class="st0" d="M72.9,76.3l-0.7-1.5c-1,0.9-2.5,1.8-4.7,1.8c-2.8,0-5.1-1.9-5.1-5c0-3.3,2.4-5.1,6.6-5.2l3-0.1v-0.5
			c0-2.2-1.4-3-3.2-3s-3.2,0.6-4.1,1.3l-1.2-2.2c2.1-1.4,3.9-1.8,6-1.8c3.6,0,6,1.5,6,5.7v5.8c0,3,0.1,4.2,0.3,4.8L72.9,76.3
			L72.9,76.3z M72,68.9L69.4,69C67,69.1,66,69.9,66,71.4s0.9,2.4,2.8,2.4c1.7,0,2.7-0.7,3.3-1.3C72,72.6,72,68.9,72,68.9z"/>
		<path class="st0" d="M83.8,76.7c-2.6,0-3.7-1.5-3.7-3.6v-9.9h-2.8v-2.7h2.8v-3.6l3.5-1.1v4.7h4.9l-1.1,2.7h-3.8v8.7
			c0,1.2,0.5,1.8,1.6,1.8s2.1-0.5,2.7-1l1,2.3C87.3,76.1,85.4,76.7,83.8,76.7L83.8,76.7z"/>
		<path class="st0" d="M100.5,76.3l-0.7-1.5c-1,0.9-2.5,1.8-4.7,1.8c-2.8,0-5.1-1.9-5.1-5c0-3.3,2.4-5.1,6.6-5.2l3-0.1v-0.5
			c0-2.2-1.4-3-3.2-3s-3.2,0.6-4.1,1.3L91,61.9c2.1-1.4,3.9-1.8,6-1.8c3.6,0,6,1.5,6,5.7v5.8c0,3,0.1,4.2,0.3,4.8L100.5,76.3
			L100.5,76.3z M99.5,68.9L96.9,69c-2.4,0.1-3.4,0.9-3.4,2.4s0.9,2.4,2.8,2.4c1.7,0,2.7-0.7,3.3-1.3C99.5,72.6,99.5,68.9,99.5,68.9z
			"/>
		<path class="st0" d="M108.4,76.8c-1.2,0-2.2-1-2.2-2.2s0.9-2.2,2.2-2.2s2.2,1,2.2,2.2S109.6,76.8,108.4,76.8z"/>
		<path class="st0" d="M119.6,76.7c-0.9,0-1.7-0.2-2.4-0.4v8.1h-3.5V61.1c1.4-0.5,3.4-1.1,5.8-1.1c5.3,0,8.3,3.2,8.3,8.1
			C127.9,73.3,124.2,76.7,119.6,76.7L119.6,76.7z M119.4,63c-0.9,0-1.6,0.1-2.2,0.3v10c0.7,0.3,1.3,0.5,2.2,0.5c3,0,4.8-2.2,4.8-5.5
			C124.3,64.7,122.1,63,119.4,63z"/>
		<path class="st0" d="M135.4,76.7c-2.6,0-3.7-1.5-3.7-3.6v-9.9h-2.8v-2.7h2.8v-3.6l3.5-1.1v4.7h4.9l-1.1,2.7h-3.8v8.7
			c0,1.2,0.5,1.8,1.6,1.8s2.1-0.5,2.7-1l1,2.3C138.9,76.1,136.9,76.7,135.4,76.7L135.4,76.7z"/>
	</g>
	
		<linearGradient id="SVGID_1_" gradientUnits="userSpaceOnUse" x1="53.123" y1="46.643" x2="87.277" y2="80.797" gradientTransform="matrix(1 0 0 -1 0 86)">
		<stop  offset="8.000000e-02" style="stop-color:#C85C1A"/>
		<stop  offset="0.44" style="stop-color:#F37021"/>
		<stop  offset="0.92" style="stop-color:#FDB913"/>
	</linearGradient>
	<path class="st1" d="M89.3,21.1c-0.1,0.2-0.1,0.4-0.1,0.6c0,0,0,0,0,0c0,0.1,0,0.1,0,0.2c-0.1,0.2-0.2,0.4-0.4,0.5l-2.9,1.7
		c-0.2,0.1-0.5,0.2-0.8,0.1c-0.2,0-0.3-0.1-0.5-0.2c0,0,0,0,0,0c-0.7-0.6-1.6-1.1-2.6-1.3c-3.1-0.7-6.2,1.2-6.9,4.4s1.2,6.2,4.4,6.9
		s6.2-1.2,6.9-4.4c0.2-0.8,0.2-1.6,0-2.4c0,0,0-0.1,0-0.1c0-0.1,0-0.3,0-0.4c0.1-0.3,0.2-0.5,0.5-0.7l0,0l2.9-1.7
		c0.2-0.1,0.4-0.1,0.6-0.1c0.1,0,0.2,0,0.2,0.1c0.1,0,0.2,0.1,0.2,0.1c0.2,0.1,0.4,0.2,0.6,0.2c1.6,0.4,3.2-0.6,3.6-2.2
		c0.4-1.6-0.6-3.2-2.2-3.6C91.2,18.5,89.6,19.5,89.3,21.1L89.3,21.1z M83.6,29c-0.4,1.6-1.9,2.6-3.5,2.2c-1.6-0.4-2.6-1.9-2.2-3.5
		s1.9-2.6,3.5-2.2C83,25.9,84,27.5,83.6,29z M92.5,20.4c0.8,0.2,1.2,0.9,1.1,1.7c-0.2,0.8-0.9,1.2-1.7,1.1s-1.2-0.9-1.1-1.7
		C91,20.7,91.7,20.2,92.5,20.4z M55.3,24.5c-2.2,2.4-2,6,0.3,8.2c0.6,0.6,1.3,1,2,1.2c0,0,0.1,0,0.1,0c0.1,0,0.3,0.1,0.4,0.2
		c0.2,0.2,0.3,0.5,0.3,0.8l0,0v3.4c0,0.2-0.1,0.4-0.2,0.6c-0.1,0.1-0.1,0.1-0.2,0.2c-0.1,0-0.1,0.1-0.2,0.1
		c-0.2,0.1-0.3,0.3-0.5,0.4c-1.1,1.2-1,3.1,0.2,4.2c1.2,1.1,3.1,1,4.2-0.2c1.1-1.2,1-3.1-0.2-4.2c-0.2-0.2-0.3-0.3-0.5-0.4
		c0,0,0,0,0,0c-0.1,0-0.1-0.1-0.2-0.1c-0.2-0.2-0.3-0.4-0.3-0.6v-3.4c0-0.2,0.1-0.5,0.3-0.7c0.1-0.1,0.3-0.2,0.5-0.3c0,0,0,0,0,0
		c0.9-0.3,1.8-0.8,2.5-1.6c2.2-2.4,2-6-0.3-8.2C61.2,22,57.5,22.1,55.3,24.5L55.3,24.5z M60.5,40.5c0.6,0.5,0.6,1.4,0.1,2
		c-0.5,0.6-1.4,0.6-2,0.1c-0.6-0.5-0.6-1.4-0.1-2C59,40,59.9,40,60.5,40.5z M61.6,26.3c1.2,1.1,1.2,3,0.2,4.1s-3,1.2-4.1,0.1
		s-1.2-3-0.2-4.1C58.5,25.2,60.4,25.2,61.6,26.3z M57.9,0.6c-1.6,0.5-2.5,2.2-2,3.7s2.2,2.4,3.7,2c0.2-0.1,0.4-0.2,0.6-0.3
		c0,0,0,0,0,0C60.3,6,60.4,6,60.4,6c0.2-0.1,0.5,0,0.7,0.1L64,7.7c0.2,0.1,0.4,0.3,0.5,0.6c0.1,0.2,0.1,0.4,0,0.5c0,0,0,0,0,0
		c-0.2,0.9-0.2,1.9,0.1,2.9c0.9,3.1,4.2,4.8,7.2,3.8c3.1-0.9,4.8-4.2,3.8-7.2c-0.9-3.1-4.2-4.8-7.2-3.8c-0.8,0.2-1.5,0.7-2.1,1.2
		c0,0-0.1,0-0.1,0.1c-0.1,0.1-0.2,0.2-0.4,0.2C65.6,6,65.3,6,65.1,5.8l0,0l-2.9-1.7c-0.2-0.1-0.3-0.3-0.4-0.5c0-0.1,0-0.2,0-0.2
		c0-0.1,0-0.2,0-0.2c0-0.2,0-0.4-0.1-0.6C61.1,1,59.4,0.1,57.9,0.6L57.9,0.6z M73,9.2c0.5,1.5-0.4,3.2-1.9,3.7s-3.2-0.4-3.7-1.9
		s0.4-3.2,1.9-3.7S72.5,7.6,73,9.2z M60.2,3c0.2,0.8-0.2,1.6-0.9,1.8c-0.8,0.2-1.5-0.2-1.8-0.9c-0.2-0.8,0.2-1.5,0.9-1.8
		C59.1,1.9,59.9,2.3,60.2,3z M68.5,29c-3.1,0.9-4.8,4.2-3.8,7.2c0.9,3.1,4.2,4.8,7.2,3.8c0.8-0.2,1.5-0.7,2.1-1.2c0,0,0.1,0,0.1-0.1
		c0.1-0.1,0.2-0.2,0.4-0.2c0.3-0.1,0.6,0,0.8,0.1l0,0l2.9,1.7c0.2,0.1,0.3,0.3,0.4,0.5c0,0.1,0,0.2,0,0.2c0,0.1,0,0.2,0,0.2
		c0,0.2,0.1,0.4,0.1,0.6c0.5,1.6,2.2,2.5,3.7,2s2.4-2.2,2-3.7c-0.5-1.6-2.2-2.5-3.7-2c-0.2,0.1-0.4,0.2-0.6,0.3c0,0,0,0,0,0
		c-0.1,0-0.1,0.1-0.2,0.1c-0.2,0.1-0.5,0-0.7-0.1l-2.9-1.7c-0.2-0.1-0.4-0.3-0.5-0.6c-0.1-0.2-0.1-0.4,0-0.5c0,0,0,0,0,0
		c0.2-0.9,0.2-1.9-0.1-2.9C74.8,29.8,71.6,28.1,68.5,29L68.5,29z M82.9,40.7c0.2,0.8-0.2,1.5-0.9,1.8c-0.8,0.2-1.6-0.2-1.8-0.9
		s0.2-1.5,0.9-1.8C81.9,39.6,82.7,40,82.9,40.7z M73,33.7c0.5,1.5-0.4,3.2-1.9,3.7s-3.2-0.4-3.7-1.9s0.4-3.2,1.9-3.7
		S72.5,32.1,73,33.7z M78.7,0.9c-1.1,1.2-1.1,3.1,0.2,4.2c0.2,0.2,0.3,0.3,0.5,0.4c0,0,0,0,0,0c0.1,0,0.1,0.1,0.2,0.1
		c0.2,0.2,0.3,0.4,0.3,0.6v3.4c0,0.2-0.1,0.5-0.3,0.7c-0.1,0.1-0.3,0.2-0.4,0.3c0,0,0,0,0,0c-0.9,0.3-1.8,0.8-2.4,1.6
		c-2.2,2.4-2,6,0.3,8.2c2.3,2.2,6,2,8.2-0.3s2-6-0.3-8.2c-0.6-0.6-1.3-1-2.1-1.2c0,0-0.1,0-0.1,0c-0.1-0.1-0.3-0.1-0.4-0.2
		c-0.2-0.2-0.3-0.5-0.3-0.8l0,0V6.3c0-0.2,0.1-0.4,0.2-0.6c0.1-0.1,0.1-0.1,0.2-0.2c0.1-0.1,0.1-0.1,0.2-0.1C82.7,5.3,82.9,5.2,83,5
		c1.1-1.2,1.1-3.1-0.2-4.2C81.7-0.3,79.8-0.2,78.7,0.9L78.7,0.9z M82.8,14c1.2,1.1,1.2,3,0.2,4.1c-1.1,1.2-2.9,1.2-4.1,0.1
		s-1.2-2.9-0.2-4.1S81.6,12.9,82.8,14z M81.8,2c0.6,0.5,0.6,1.4,0.1,2c-0.5,0.6-1.4,0.6-2,0.1c-0.6-0.5-0.6-1.4-0.1-2
		C80.4,1.5,81.3,1.4,81.8,2z M54,14.9c-0.2,0.8-0.2,1.6,0,2.4c0,0,0,0.1,0,0.1c0,0.1,0,0.3,0,0.4c-0.1,0.3-0.2,0.5-0.5,0.7l0,0
		l-2.9,1.7c-0.2,0.1-0.4,0.1-0.6,0.1c-0.1,0-0.2,0-0.2-0.1c-0.1,0-0.2-0.1-0.2-0.1c-0.2-0.1-0.4-0.2-0.6-0.2
		c-1.6-0.4-3.2,0.6-3.6,2.2c-0.4,1.6,0.6,3.2,2.2,3.6c1.6,0.4,3.2-0.6,3.6-2.2c0-0.2,0.1-0.4,0.1-0.6c0,0,0,0,0,0c0-0.1,0-0.1,0-0.2
		c0-0.2,0.2-0.4,0.4-0.5l2.9-1.7c0.2-0.1,0.5-0.2,0.8-0.1c0.2,0,0.3,0.1,0.5,0.2c0,0,0,0,0,0c0.7,0.6,1.6,1.1,2.6,1.3
		c3.1,0.7,6.2-1.2,6.9-4.4s-1.2-6.2-4.4-6.9C57.8,9.8,54.7,11.8,54,14.9L54,14.9z M47.9,24.1c-0.8-0.2-1.2-0.9-1.1-1.7
		s0.9-1.2,1.7-1.1s1.2,0.9,1.1,1.7C49.4,23.8,48.7,24.3,47.9,24.1z M60.3,13.3c1.6,0.4,2.6,1.9,2.2,3.5S60.5,19.4,59,19
		c-1.6-0.4-2.6-1.9-2.2-3.5S58.7,13,60.3,13.3z"/>
</g>
<g id="Nodes">
	<path class="st2" d="M222.7,48.6c0.2-0.5,0.4-1,0.6-1.7c0.3-0.7,0.5-1.5,0.6-2.2l2.3-9.9c0.2-1,0.3-1.8,0.4-2.2
		c0.1-0.4,0.1-0.8,0.1-1.2v-0.5h5.2l-3.1,13.8c-0.2,1-0.4,1.7-0.4,2.3c-0.1,0.5-0.1,1.1-0.1,1.6L222.7,48.6L222.7,48.6z"/>
	<path class="st3" d="M291.3,0.3c-3.3,0-6,2.7-6,6c0,1,0.2,2,0.7,2.9c-0.6,0.3-2,1-4,2c-1.1-2.2-3.7-3.2-6-2.1s-3.2,3.7-2.1,6
		c0.1,0.1,0.1,0.3,0.2,0.4c-1,0.6-2,1.1-3.1,1.7c-1.1-1.6-3.2-2.1-4.9-1c-1,0.6-1.6,1.8-1.6,3c0,0.6,0.1,1.1,0.4,1.6
		c-1.1,0.7-2.2,1.3-3.4,2c-1.1-0.9-2.7-0.8-3.6,0.3c-0.4,0.5-0.6,1.1-0.6,1.7c0,0.2,0,0.5,0.1,0.7c-4.3,2.7-8.4,5.8-12.3,9
		C241,25.3,235,15.2,226.6,7.1l0,0c-1-1-1.8-0.5-0.7,0.7l0,0.1c7.1,7.6,12.7,18.7,16.5,28.8c-14.4,12.3-30.3,36.2-12.9,43.7
		c2.5,1.1,3.7-1,2.6-1.6c-0.2-0.1-8-4.3-3-17.2h12.4c0.7,0,1.2-0.6,1.1-1.3c0-0.6-0.5-1.1-1.1-1.1h-11.4c0.7-1.6,1.6-3.1,2.5-4.6
		h8.9c0.7,0,1.2-0.6,1.1-1.3c0-0.6-0.5-1.1-1.1-1.1h-7.4c0.9-1.4,2-2.8,3.1-4.3h4.3c0.7,0,1.2-0.6,1.1-1.3c0-0.6-0.5-1.1-1.1-1.1
		h-2.4c1.4-1.7,2.8-3.4,4.5-5.2l0,0c3.3,9.5,4.9,17.6,4.5,20.3c-0.1,1-0.6,1.8-1.5,2.3c-0.6,0.3-0.9,1.1,0.1,1.4
		c3.1,0.9,4.9-2.1,5.3-4.6s-1.3-11.4-5.7-22.1c3.8-3.7,7.9-7.2,12.3-10.4c1.2,0.7,2.8,0.3,3.5-1c0.3-0.5,0.4-1.2,0.3-1.8
		c1.1-0.8,2.3-1.6,3.4-2.3c1.5,1.2,3.7,1,5-0.5c0.7-0.9,0.9-2,0.7-3.1c1.1-0.7,2.2-1.4,3.3-2c1.7,1.8,4.6,1.9,6.4,0.1
		c0.9-0.9,1.4-2,1.4-3.2c0-0.4-0.1-0.9-0.2-1.3c1.9-1.1,3.3-1.8,4-2.2c1.9,2.8,5.6,3.5,8.4,1.6s3.5-5.6,1.6-8.4
		C295.2,1.3,293.3,0.3,291.3,0.3L291.3,0.3L291.3,0.3z"/>
	<path class="st2" d="M209.7,48.6h-15.4c-1.5,0-2.6-0.3-3.2-1.1c-0.3-0.5-0.5-1.1-0.4-1.7c0-0.7,0.1-1.3,0.3-1.9l1.9-8.3
		c0.4-1.7,1-2.9,1.8-3.6s2-1.1,3.6-1.1h11.4c1.6,0,2.7,0.4,3.2,1.1c0.4,0.5,0.5,1.1,0.5,1.7c0,0.6-0.1,1.3-0.3,1.9l-1.2,5.5h-15.4
		l-0.8,3.6c-0.1,0.3-0.1,0.6-0.1,0.9c0,0.2,0,0.3,0.1,0.4c0.1,0.2,0.4,0.4,1,0.4h11.3c1,0,2-0.1,2.9-0.3L209.7,48.6L209.7,48.6z
		 M208.5,34.8c0.1-0.3,0.1-0.6,0.1-0.9c0-0.1,0-0.3-0.1-0.4c-0.1-0.2-0.5-0.3-1.1-0.3h-8c-0.4,0-0.8,0.1-1.1,0.3
		c-0.3,0.3-0.5,0.8-0.5,1.3l-0.9,4.1h10.6L208.5,34.8L208.5,34.8z"/>
	<path class="st2" d="M213.6,48.6c0.2-0.5,0.4-1.1,0.7-1.8c0.3-0.8,0.5-1.6,0.7-2.5l3.9-18.3c0.2-1.1,0.4-2,0.5-2.5s0.1-1.1,0.1-1.9
		h5.5L220,44.3c-0.2,1.1-0.4,1.9-0.5,2.5c-0.1,0.6-0.1,1.2-0.1,1.8L213.6,48.6L213.6,48.6z"/>
	<path class="st2" d="M277,33.9c-0.6,0-1.1-0.1-1.8-0.1h-2.5c-0.4,0-0.8,0.1-1.1,0.3c-0.3,0.3-0.6,0.7-0.6,1.2l-2.1,9.4
		c-0.3,1.1-0.5,2.3-0.5,3.5v0.5h-5.5c0.2-0.6,0.5-1.1,0.6-1.6s0.4-1.2,0.6-2.3l2.2-9.9c0.3-1,0.4-1.7,0.5-2.3c0.1-0.5,0.1-1,0.1-1.6
		h4.6l-0.2,1.8c0.2-0.5,0.7-1,1.2-1.4c0.6-0.3,1.3-0.5,2-0.5h4.5l1.1,1.9c-0.2,0.2-0.5,0.5-0.6,0.7c-0.3,0.3-0.5,0.5-0.6,0.5
		C278.1,34,277.5,33.9,277,33.9L277,33.9z"/>
	<path class="st2" d="M252.6,48.6c0.2-0.5,0.4-1,0.6-1.7c0.3-0.7,0.5-1.5,0.6-2.2l2.3-9.9c0.2-1,0.3-1.8,0.4-2.2
		c0.1-0.4,0.1-0.8,0.1-1.2v-0.5h5.2l-3.1,13.8c-0.2,1-0.4,1.7-0.5,2.3c-0.1,0.5-0.1,1.1-0.1,1.7L252.6,48.6L252.6,48.6z"/>
	<path class="st2" d="M232.7,24.7c0,1.4-1.1,2.5-2.6,2.5s-2.6-1.1-2.6-2.5s1.1-2.5,2.6-2.5l0,0C231.6,22.2,232.7,23.3,232.7,24.7z"
		/>
	<path class="st2" d="M243.1,79.7c-0.2,0.9-0.2,1.2-0.1,1.6h-4.2c0.4-0.5,0.6-1,0.7-1.6l1.5-6.2c0.2-0.9,0.2-1.2,0-1.6h7.7
		c1.4,0,2.3,0.4,1.8,2.3l-0.4,1.5c-0.5,1.9-1.6,2.3-2.9,2.3h-3.7L243.1,79.7L243.1,79.7z M243.9,76.4h1.9c0.5,0,0.7-0.2,0.9-0.8
		l0.3-1.3c0.2-0.7,0.1-0.8-0.4-0.8h-1.9L243.9,76.4L243.9,76.4z"/>
	<path class="st2" d="M251.5,74.7c0.5-2,1.5-2.8,3.1-2.8h5.4c1.5,0,2.2,0.7,1.7,2.8l-1,3.9c-0.5,2-1.5,2.8-3.1,2.8h-5.4
		c-1.5,0-2.2-0.7-1.7-2.8L251.5,74.7L251.5,74.7z M254,79.1c-0.1,0.4,0.1,0.6,0.6,0.6h1.6c0.5,0,0.7-0.2,0.9-0.6l1.3-5.1
		c0.1-0.4-0.1-0.6-0.6-0.6h-1.6c-0.5,0-0.7,0.2-0.9,0.6L254,79.1L254,79.1z"/>
	<path class="st2" d="M266,77.2l-0.6,2.5c-0.2,0.9-0.2,1.2-0.1,1.6h-4.2c0.4-0.5,0.6-1,0.7-1.6l1.5-6.2c0.2-0.9,0.2-1.2,0-1.6h7.7
		c1.6,0,2.3,0.5,1.9,2.1l-0.4,1.7c-0.4,1.4-1,1.5-1.8,1.5l0.6,2.7c0.1,0.5,0.2,1,0.4,1.4h-4l-0.7-4.1L266,77.2L266,77.2z
		 M266.4,75.7h2c0.5,0,0.6-0.1,0.7-0.5l0.3-1.1c0.1-0.5,0-0.5-0.5-0.5h-2L266.4,75.7z"/>
	<path class="st2" d="M283.6,71.9l-0.2,1.9c-0.4-0.3-0.8-0.4-1.2-0.4h-1.6l-1.5,6.2c-0.2,0.9-0.2,1.2-0.1,1.6h-4.2
		c0.4-0.5,0.6-1,0.7-1.6l1.5-6.2h-1.6c-0.5,0-1,0.1-1.4,0.4l0.8-1.9L283.6,71.9L283.6,71.9z"/>
	<path class="st2" d="M290,79.7c1,0,1.1-0.1,1.3-0.9l1.3-5.2c0.3-1.1,0.3-1.2,0.1-1.7h2.3c-0.4,0.4-0.5,0.6-0.8,1.7l-1.2,4.8
		c-0.5,2.1-1.3,2.9-3.4,2.9h-4.7c-1.8,0-2.4-0.9-1.9-2.9l1.2-4.9c0.2-0.9,0.2-1.2,0.1-1.6h4.2c-0.4,0.5-0.6,1-0.7,1.6l-1.3,5.3
		c-0.1,0.6,0,0.9,0.7,0.9L290,79.7L290,79.7z"/>
	<path class="st2" d="M305.2,75.7c-0.4,0.4-0.7,0.9-0.8,1.5l-0.6,2.3c-0.3,1.2-0.3,1.3-0.1,1.8h-3.2l0.1-0.9h0
		c-0.3,0.5-0.5,0.9-1.5,0.9H296c-1.5,0-2.2-0.7-1.7-2.8l1-3.9c0.5-2,1.5-2.8,3.1-2.8h6.9l-0.2,1.8c-0.4-0.2-0.9-0.3-1.4-0.2h-3.8
		c-0.5,0-0.7,0.2-0.9,0.6l-1.3,5.1c-0.1,0.4,0.1,0.6,0.5,0.6h1.2c0.5,0,0.7-0.2,0.9-0.6l0.5-1.9h-1.3c-0.2,0-0.5,0.1-0.6,0.2
		l0.4-1.7L305.2,75.7L305.2,75.7z"/>
	<path class="st2" d="M307.7,78.8l-1,1.3c-0.1,0.2-0.2,0.4-0.3,0.6c-0.1,0.2-0.1,0.5,0,0.7h-2.7c0.6-0.5,1.1-1.1,1.5-1.7l5.2-7.2
		l-0.3-0.5h4.3l1.3,8.1c0.1,0.5,0.2,0.9,0.5,1.3h-4.7c0.3-0.4,0.3-0.4,0.4-0.6c0.1-0.2,0.1-0.5,0-0.7l-0.2-1.2L307.7,78.8
		L307.7,78.8z M311.6,77.2l-0.5-3.2l-2.2,3.2H311.6L311.6,77.2z"/>
	<path class="st2" d="M324,79.7c0.6,0,1.1-0.1,1.6-0.3l-0.8,1.9h-8.1c0.4-0.5,0.6-1,0.7-1.6l1.5-6.2c0.2-0.9,0.2-1.2,0.1-1.6h4.2
		c-0.4,0.5-0.6,1-0.7,1.6l-1.5,6.2L324,79.7L324,79.7z"/>
</g>
<line class="st4" x1="165.6" y1="0.8" x2="165.6" y2="84.6"/>
</svg>
