<?xml version="1.0" encoding="UTF-8" standalone="no"?>
<!-- Generator: Adobe Illustrator 28.0.0, SVG Export Plug-In . SVG Version: 6.00 Build 0)  -->

<svg
   version="1.1"
   id="Layer_1"
   x="0px"
   y="0px"
   viewBox="0 0 45746.8 7138.2692"
   xml:space="preserve"
   width="45746.801"
   height="7138.269"
   xmlns="http://www.w3.org/2000/svg"
   xmlns:svg="http://www.w3.org/2000/svg"><defs
   id="defs27" />
<style
   type="text/css"
   id="style1">
	.st0{fill:#4D4D4F;}
	.st1{fill:url(#SVGID_1_);}
	.st2{fill:#4E4949;}
	.st3{fill:#F37D20;}
	.st4{fill:none;stroke:#4E4E4F;stroke-width:0.5;stroke-miterlimit:10;}
</style>
<g
   id="g12"
   transform="translate(0,-1.9709935)">
	<g
   id="g10">
		<path
   class="st0"
   d="M 6.5,76.3 H 0 V 54.2 h 6.7 c 4.2,0 6.2,2.8 6.2,5.5 0,2 -1,3.9 -2.8,4.7 v 0 c 2.3,0.5 4.2,2.6 4.2,5.4 0,3 -2.1,6.5 -7.8,6.5 z m -3,-19.1 v 6.3 H 6 c 1.7,0 3.3,-1.2 3.3,-3.2 0,-1.8 -1.1,-3.1 -3.5,-3.1 0,0 -2.3,0 -2.3,0 z m 3,9.4 h -3 v 6.8 h 2.8 c 2.9,0 4.3,-1.4 4.3,-3.5 0,-2 -1.5,-3.3 -4.1,-3.3 z"
   id="path1" />
		<path
   class="st0"
   d="m 21.3,55.5 c 0,1.2 -1,2.2 -2.2,2.2 -1.2,0 -2.2,-1 -2.2,-2.2 0,-1.2 1,-2.2 2.2,-2.2 1.2,0 2.2,0.9 2.2,2.2 z m -4,20.8 V 60.4 h 3.5 v 15.9 z"
   id="path2" />
		<path
   class="st0"
   d="m 37,62.3 c 1.4,1.5 2.2,3.6 2.2,6.1 0,2.5 -0.8,4.7 -2.2,6.2 -1.4,1.4 -3.3,2.2 -5.5,2.2 -2.2,0 -4,-0.7 -5.3,-1.9 -1.5,-1.5 -2.4,-3.7 -2.4,-6.3 0,-2.6 0.8,-4.7 2.3,-6.2 1.3,-1.4 3.2,-2.2 5.4,-2.2 2.2,-0.2 4.2,0.6 5.5,2.1 z m -9.7,6.1 c 0,3.3 1.6,5.5 4.2,5.5 2.6,0 4.1,-2.3 4.1,-5.5 0,-3.2 -1.5,-5.5 -4.2,-5.5 -2.7,0 -4.1,2.2 -4.1,5.5 z"
   id="path3" />
		<path
   class="st0"
   d="m 48.3,76.3 h -6 V 54.2 h 6.1 c 8.2,0 12.2,4.5 12.2,10.9 0,6.4 -4.3,11.2 -12.3,11.2 z m 0.2,-19.1 h -2.6 v 16.1 h 2.6 c 6.2,0 8.4,-3.9 8.4,-8.2 0,-4.3 -2.7,-7.8 -8.4,-7.9 z"
   id="path4" />
		<path
   class="st0"
   d="m 72.9,76.3 -0.7,-1.5 c -1,0.9 -2.5,1.8 -4.7,1.8 -2.8,0 -5.1,-1.9 -5.1,-5 0,-3.3 2.4,-5.1 6.6,-5.2 l 3,-0.1 v -0.5 c 0,-2.2 -1.4,-3 -3.2,-3 -1.8,0 -3.2,0.6 -4.1,1.3 l -1.2,-2.2 c 2.1,-1.4 3.9,-1.8 6,-1.8 3.6,0 6,1.5 6,5.7 v 5.8 c 0,3 0.1,4.2 0.3,4.8 z M 72,68.9 69.4,69 C 67,69.1 66,69.9 66,71.4 c 0,1.5 0.9,2.4 2.8,2.4 1.7,0 2.7,-0.7 3.3,-1.3 C 72,72.6 72,68.9 72,68.9 Z"
   id="path5" />
		<path
   class="st0"
   d="m 83.8,76.7 c -2.6,0 -3.7,-1.5 -3.7,-3.6 v -9.9 h -2.8 v -2.7 h 2.8 v -3.6 l 3.5,-1.1 v 4.7 h 4.9 l -1.1,2.7 h -3.8 v 8.7 c 0,1.2 0.5,1.8 1.6,1.8 1.1,0 2.1,-0.5 2.7,-1 l 1,2.3 c -1.6,1.1 -3.5,1.7 -5.1,1.7 z"
   id="path6" />
		<path
   class="st0"
   d="m 100.5,76.3 -0.7,-1.5 c -1,0.9 -2.5,1.8 -4.7,1.8 -2.8,0 -5.1,-1.9 -5.1,-5 0,-3.3 2.4,-5.1 6.6,-5.2 l 3,-0.1 v -0.5 c 0,-2.2 -1.4,-3 -3.2,-3 -1.8,0 -3.2,0.6 -4.1,1.3 L 91,61.9 c 2.1,-1.4 3.9,-1.8 6,-1.8 3.6,0 6,1.5 6,5.7 v 5.8 c 0,3 0.1,4.2 0.3,4.8 z m -1,-7.4 -2.6,0.1 c -2.4,0.1 -3.4,0.9 -3.4,2.4 0,1.5 0.9,2.4 2.8,2.4 1.7,0 2.7,-0.7 3.3,-1.3 -0.1,0.1 -0.1,-3.6 -0.1,-3.6 z"
   id="path7" />
		<path
   class="st0"
   d="m 108.4,76.8 c -1.2,0 -2.2,-1 -2.2,-2.2 0,-1.2 0.9,-2.2 2.2,-2.2 1.3,0 2.2,1 2.2,2.2 0,1.2 -1,2.2 -2.2,2.2 z"
   id="path8" />
		<path
   class="st0"
   d="m 119.6,76.7 c -0.9,0 -1.7,-0.2 -2.4,-0.4 v 8.1 h -3.5 V 61.1 c 1.4,-0.5 3.4,-1.1 5.8,-1.1 5.3,0 8.3,3.2 8.3,8.1 0.1,5.2 -3.6,8.6 -8.2,8.6 z M 119.4,63 c -0.9,0 -1.6,0.1 -2.2,0.3 v 10 c 0.7,0.3 1.3,0.5 2.2,0.5 3,0 4.8,-2.2 4.8,-5.5 0.1,-3.6 -2.1,-5.3 -4.8,-5.3 z"
   id="path9" />
		<path
   class="st0"
   d="m 135.4,76.7 c -2.6,0 -3.7,-1.5 -3.7,-3.6 v -9.9 h -2.8 v -2.7 h 2.8 v -3.6 l 3.5,-1.1 v 4.7 h 4.9 l -1.1,2.7 h -3.8 v 8.7 c 0,1.2 0.5,1.8 1.6,1.8 1.1,0 2.1,-0.5 2.7,-1 l 1,2.3 c -1.6,1.1 -3.6,1.7 -5.1,1.7 z"
   id="path10" />
	</g>
	
		<linearGradient
   id="SVGID_1_"
   gradientUnits="userSpaceOnUse"
   x1="53.123001"
   y1="46.643002"
   x2="87.277"
   y2="80.796997"
   gradientTransform="matrix(1,0,0,-1,0,86)">
		<stop
   offset="8.000000e-02"
   style="stop-color:#C85C1A"
   id="stop10" />
		<stop
   offset="0.44"
   style="stop-color:#F37021"
   id="stop11" />
		<stop
   offset="0.92"
   style="stop-color:#FDB913"
   id="stop12" />
	</linearGradient>
	<path
   class="st1"
   d="m 89.3,21.1 c -0.1,0.2 -0.1,0.4 -0.1,0.6 0,0 0,0 0,0 0,0.1 0,0.1 0,0.2 -0.1,0.2 -0.2,0.4 -0.4,0.5 l -2.9,1.7 c -0.2,0.1 -0.5,0.2 -0.8,0.1 -0.2,0 -0.3,-0.1 -0.5,-0.2 0,0 0,0 0,0 -0.7,-0.6 -1.6,-1.1 -2.6,-1.3 -3.1,-0.7 -6.2,1.2 -6.9,4.4 -0.7,3.2 1.2,6.2 4.4,6.9 3.2,0.7 6.2,-1.2 6.9,-4.4 0.2,-0.8 0.2,-1.6 0,-2.4 0,0 0,-0.1 0,-0.1 0,-0.1 0,-0.3 0,-0.4 0.1,-0.3 0.2,-0.5 0.5,-0.7 v 0 l 2.9,-1.7 c 0.2,-0.1 0.4,-0.1 0.6,-0.1 0.1,0 0.2,0 0.2,0.1 0.1,0 0.2,0.1 0.2,0.1 0.2,0.1 0.4,0.2 0.6,0.2 1.6,0.4 3.2,-0.6 3.6,-2.2 0.4,-1.6 -0.6,-3.2 -2.2,-3.6 -1.6,-0.3 -3.2,0.7 -3.5,2.3 z M 83.6,29 c -0.4,1.6 -1.9,2.6 -3.5,2.2 -1.6,-0.4 -2.6,-1.9 -2.2,-3.5 0.4,-1.6 1.9,-2.6 3.5,-2.2 1.6,0.4 2.6,2 2.2,3.5 z m 8.9,-8.6 c 0.8,0.2 1.2,0.9 1.1,1.7 -0.2,0.8 -0.9,1.2 -1.7,1.1 -0.8,-0.1 -1.2,-0.9 -1.1,-1.7 0.2,-0.8 0.9,-1.3 1.7,-1.1 z m -37.2,4.1 c -2.2,2.4 -2,6 0.3,8.2 0.6,0.6 1.3,1 2,1.2 0,0 0.1,0 0.1,0 0.1,0 0.3,0.1 0.4,0.2 0.2,0.2 0.3,0.5 0.3,0.8 v 0 3.4 c 0,0.2 -0.1,0.4 -0.2,0.6 -0.1,0.1 -0.1,0.1 -0.2,0.2 -0.1,0 -0.1,0.1 -0.2,0.1 -0.2,0.1 -0.3,0.3 -0.5,0.4 -1.1,1.2 -1,3.1 0.2,4.2 1.2,1.1 3.1,1 4.2,-0.2 1.1,-1.2 1,-3.1 -0.2,-4.2 -0.2,-0.2 -0.3,-0.3 -0.5,-0.4 0,0 0,0 0,0 -0.1,0 -0.1,-0.1 -0.2,-0.1 -0.2,-0.2 -0.3,-0.4 -0.3,-0.6 v -3.4 c 0,-0.2 0.1,-0.5 0.3,-0.7 0.1,-0.1 0.3,-0.2 0.5,-0.3 0,0 0,0 0,0 0.9,-0.3 1.8,-0.8 2.5,-1.6 2.2,-2.4 2,-6 -0.3,-8.2 -2.3,-2.1 -6,-2 -8.2,0.4 z m 5.2,16 c 0.6,0.5 0.6,1.4 0.1,2 -0.5,0.6 -1.4,0.6 -2,0.1 C 58,42.1 58,41.2 58.5,40.6 59,40 59.9,40 60.5,40.5 Z m 1.1,-14.2 c 1.2,1.1 1.2,3 0.2,4.1 -1,1.1 -3,1.2 -4.1,0.1 -1.1,-1.1 -1.2,-3 -0.2,-4.1 1,-1.2 2.9,-1.2 4.1,-0.1 z M 57.9,0.6 c -1.6,0.5 -2.5,2.2 -2,3.7 0.5,1.5 2.2,2.4 3.7,2 0.2,-0.1 0.4,-0.2 0.6,-0.3 0,0 0,0 0,0 0.1,0 0.2,0 0.2,0 0.2,-0.1 0.5,0 0.7,0.1 L 64,7.7 c 0.2,0.1 0.4,0.3 0.5,0.6 0.1,0.2 0.1,0.4 0,0.5 0,0 0,0 0,0 -0.2,0.9 -0.2,1.9 0.1,2.9 0.9,3.1 4.2,4.8 7.2,3.8 3.1,-0.9 4.8,-4.2 3.8,-7.2 -0.9,-3.1 -4.2,-4.8 -7.2,-3.8 -0.8,0.2 -1.5,0.7 -2.1,1.2 0,0 -0.1,0 -0.1,0.1 C 66.1,5.9 66,6 65.8,6 65.6,6 65.3,6 65.1,5.8 v 0 L 62.2,4.1 C 62,4 61.9,3.8 61.8,3.6 c 0,-0.1 0,-0.2 0,-0.2 0,-0.1 0,-0.2 0,-0.2 0,-0.2 0,-0.4 -0.1,-0.6 C 61.1,1 59.4,0.1 57.9,0.6 Z M 73,9.2 c 0.5,1.5 -0.4,3.2 -1.9,3.7 C 69.6,13.4 67.9,12.5 67.4,11 66.9,9.5 67.8,7.8 69.3,7.3 70.8,6.8 72.5,7.6 73,9.2 Z M 60.2,3 C 60.4,3.8 60,4.6 59.3,4.8 58.5,5 57.8,4.6 57.5,3.9 57.3,3.1 57.7,2.4 58.4,2.1 59.1,1.9 59.9,2.3 60.2,3 Z m 8.3,26 c -3.1,0.9 -4.8,4.2 -3.8,7.2 0.9,3.1 4.2,4.8 7.2,3.8 0.8,-0.2 1.5,-0.7 2.1,-1.2 0,0 0.1,0 0.1,-0.1 0.1,-0.1 0.2,-0.2 0.4,-0.2 0.3,-0.1 0.6,0 0.8,0.1 v 0 l 2.9,1.7 c 0.2,0.1 0.3,0.3 0.4,0.5 0,0.1 0,0.2 0,0.2 0,0.1 0,0.2 0,0.2 0,0.2 0.1,0.4 0.1,0.6 0.5,1.6 2.2,2.5 3.7,2 1.5,-0.5 2.4,-2.2 2,-3.7 -0.5,-1.6 -2.2,-2.5 -3.7,-2 -0.2,0.1 -0.4,0.2 -0.6,0.3 0,0 0,0 0,0 -0.1,0 -0.1,0.1 -0.2,0.1 -0.2,0.1 -0.5,0 -0.7,-0.1 l -2.9,-1.7 c -0.2,-0.1 -0.4,-0.3 -0.5,-0.6 -0.1,-0.2 -0.1,-0.4 0,-0.5 0,0 0,0 0,0 C 76,34.7 76,33.7 75.7,32.7 74.8,29.8 71.6,28.1 68.5,29 Z m 14.4,11.7 c 0.2,0.8 -0.2,1.5 -0.9,1.8 -0.8,0.2 -1.6,-0.2 -1.8,-0.9 -0.2,-0.7 0.2,-1.5 0.9,-1.8 0.8,-0.2 1.6,0.2 1.8,0.9 z m -9.9,-7 c 0.5,1.5 -0.4,3.2 -1.9,3.7 -1.5,0.5 -3.2,-0.4 -3.7,-1.9 -0.5,-1.5 0.4,-3.2 1.9,-3.7 1.5,-0.5 3.2,0.3 3.7,1.9 z M 78.7,0.9 c -1.1,1.2 -1.1,3.1 0.2,4.2 0.2,0.2 0.3,0.3 0.5,0.4 0,0 0,0 0,0 0.1,0 0.1,0.1 0.2,0.1 0.2,0.2 0.3,0.4 0.3,0.6 v 3.4 c 0,0.2 -0.1,0.5 -0.3,0.7 -0.1,0.1 -0.3,0.2 -0.4,0.3 0,0 0,0 0,0 -0.9,0.3 -1.8,0.8 -2.4,1.6 -2.2,2.4 -2,6 0.3,8.2 2.3,2.2 6,2 8.2,-0.3 2.2,-2.3 2,-6 -0.3,-8.2 -0.6,-0.6 -1.3,-1 -2.1,-1.2 0,0 -0.1,0 -0.1,0 C 82.7,10.6 82.5,10.6 82.4,10.5 82.2,10.3 82.1,10 82.1,9.7 v 0 -3.4 c 0,-0.2 0.1,-0.4 0.2,-0.6 0.1,-0.1 0.1,-0.1 0.2,-0.2 0.1,-0.1 0.1,-0.1 0.2,-0.1 0,-0.1 0.2,-0.2 0.3,-0.4 1.1,-1.2 1.1,-3.1 -0.2,-4.2 -1.1,-1.1 -3,-1 -4.1,0.1 z M 82.8,14 c 1.2,1.1 1.2,3 0.2,4.1 -1.1,1.2 -2.9,1.2 -4.1,0.1 -1.2,-1.1 -1.2,-2.9 -0.2,-4.1 1,-1.2 2.9,-1.2 4.1,-0.1 z m -1,-12 c 0.6,0.5 0.6,1.4 0.1,2 -0.5,0.6 -1.4,0.6 -2,0.1 -0.6,-0.5 -0.6,-1.4 -0.1,-2 0.6,-0.6 1.5,-0.7 2,-0.1 z M 54,14.9 c -0.2,0.8 -0.2,1.6 0,2.4 0,0 0,0.1 0,0.1 0,0.1 0,0.3 0,0.4 -0.1,0.3 -0.2,0.5 -0.5,0.7 v 0 l -2.9,1.7 c -0.2,0.1 -0.4,0.1 -0.6,0.1 -0.1,0 -0.2,0 -0.2,-0.1 -0.1,0 -0.2,-0.1 -0.2,-0.1 -0.2,-0.1 -0.4,-0.2 -0.6,-0.2 -1.6,-0.4 -3.2,0.6 -3.6,2.2 -0.4,1.6 0.6,3.2 2.2,3.6 1.6,0.4 3.2,-0.6 3.6,-2.2 0,-0.2 0.1,-0.4 0.1,-0.6 0,0 0,0 0,0 0,-0.1 0,-0.1 0,-0.2 0,-0.2 0.2,-0.4 0.4,-0.5 l 2.9,-1.7 c 0.2,-0.1 0.5,-0.2 0.8,-0.1 0.2,0 0.3,0.1 0.5,0.2 0,0 0,0 0,0 0.7,0.6 1.6,1.1 2.6,1.3 3.1,0.7 6.2,-1.2 6.9,-4.4 0.7,-3.2 -1.2,-6.2 -4.4,-6.9 -3.2,-0.8 -6.3,1.2 -7,4.3 z m -6.1,9.2 c -0.8,-0.2 -1.2,-0.9 -1.1,-1.7 0.1,-0.8 0.9,-1.2 1.7,-1.1 0.8,0.1 1.2,0.9 1.1,1.7 -0.2,0.8 -0.9,1.3 -1.7,1.1 z M 60.3,13.3 c 1.6,0.4 2.6,1.9 2.2,3.5 -0.4,1.6 -2,2.6 -3.5,2.2 -1.6,-0.4 -2.6,-1.9 -2.2,-3.5 0.4,-1.6 1.9,-2.5 3.5,-2.2 z"
   id="path12"
   style="fill:url(#SVGID_1_)" />
</g>


</svg>
