<?xml version="1.0" standalone="no"?>
<!DOCTYPE svg PUBLIC "-//W3C//DTD SVG 20010904//EN"
 "http://www.w3.org/TR/2001/REC-SVG-20010904/DTD/svg10.dtd">
<svg version="1.0" xmlns="http://www.w3.org/2000/svg"
 width="700.000000pt" height="700.000000pt" viewBox="0 0 700.000000 700.000000"
 preserveAspectRatio="xMidYMid meet">
<metadata>
Created by potrace 1.11, written by Peter Selinger 2001-2013
</metadata>
<g transform="translate(0.000000,700.000000) scale(0.100000,-0.100000)"
fill="#000000" stroke="none">
<path d="M1435 6980 c-558 -88 -1019 -428 -1265 -932 -33 -67 -116 -283 -109
-283 1 0 -5 -31 -15 -70 -43 -180 -55 -449 -27 -620 63 -374 226 -694 488
-951 253 -250 558 -401 933 -464 94 -16 196 -18 1013 -19 l908 -2 -4 928 c-2
510 -6 939 -9 953 -3 14 -9 48 -13 75 -21 144 -99 370 -176 515 -233 433 -618
726 -1114 847 -163 40 -437 50 -610 23z"/>
<path d="M5105 6984 c-308 -46 -555 -148 -805 -332 -76 -56 -265 -241 -304
-298 -128 -186 -177 -274 -236 -424 -41 -103 -83 -252 -95 -340 -3 -25 -10
-70 -15 -100 -4 -30 -9 -459 -9 -953 l-2 -898 903 2 c976 1 992 2 1205 58 580
152 1037 607 1194 1191 38 142 52 251 52 425 1 94 -2 186 -6 205 -4 19 -10 58
-13 85 -4 28 -10 57 -14 65 -4 8 -11 33 -14 55 -11 63 -74 237 -116 325 -198
403 -520 691 -957 854 -66 24 -190 56 -288 73 -118 20 -365 24 -480 7z"/>
<path d="M1540 3353 c-213 -29 -299 -49 -443 -102 -416 -155 -746 -457 -932
-856 -41 -87 -99 -243 -110 -295 -15 -74 -34 -170 -40 -205 -4 -22 -8 -111 -9
-198 -3 -214 21 -365 90 -564 58 -170 151 -343 261 -486 59 -78 211 -229 291
-291 224 -172 509 -293 792 -337 129 -20 437 -16 520 6 8 2 31 7 50 10 19 3
53 11 75 17 22 6 45 12 51 14 83 16 306 114 419 184 153 94 342 257 425 369
14 18 35 45 47 60 37 46 122 187 163 271 51 106 106 266 129 381 11 52 23 110
27 129 4 19 9 455 11 968 l4 932 -898 -1 c-494 -1 -909 -4 -923 -6z"/>
<path d="M3643 2423 c5 -1000 3 -970 56 -1170 55 -210 162 -429 298 -606 108
-140 315 -324 454 -402 296 -166 534 -234 839 -240 663 -12 1263 361 1546 960
103 220 154 435 159 675 3 181 -9 290 -51 453 -151 588 -595 1042 -1179 1203
-219 61 -246 62 -1228 64 l-898 1 4 -938z"/>
</g>
</svg>
